<svg version="1.1" id="Layer_1" xmlns="http://www.w3.org/2000/svg" xmlns:xlink="http://www.w3.org/1999/xlink" x="0px" y="0px"
	 width="100%" viewBox="0 0 1462 497" enable-background="new 0 0 1462 497" xml:space="preserve">
<path fill="#151515" opacity="1.000000" stroke="none"
	d="
M1463.000000,235.000000 
	C1463.000000,322.611877 1463.000000,410.223785 1463.000000,498.000000 
	C1322.642578,498.000000 1182.285156,498.000000 1041.176758,497.706512 
	C1048.101074,491.791199 1051.939697,484.017059 1050.841797,474.758789 
	C1049.493896,463.391571 1046.608154,452.213318 1045.057739,440.861786 
	C1043.028564,426.003174 1040.771240,411.087036 1040.229370,396.137024 
	C1039.587036,378.424683 1040.622314,360.648926 1041.016235,342.902557 
	C1041.262207,331.817749 1041.708130,320.737579 1041.989868,309.653412 
	C1042.364624,294.905945 1042.416016,280.144653 1043.118408,265.413757 
	C1043.416138,259.169586 1044.786377,252.937897 1046.118896,246.798141 
	C1046.781616,243.744690 1049.358887,241.277451 1052.543335,242.194748 
	C1055.170044,242.951401 1058.266235,244.932419 1059.428101,247.240051 
	C1061.104614,250.570145 1061.833374,254.676941 1061.893188,258.469269 
	C1062.145752,274.460968 1062.134155,290.460754 1061.916748,306.453461 
	C1061.853027,311.139221 1060.781494,315.810303 1060.187134,320.490051 
	C1059.449951,326.292633 1058.152954,332.103912 1058.219727,337.898499 
	C1058.258789,341.299255 1059.513184,345.366089 1064.346191,346.020264 
	C1069.135742,346.668549 1071.455078,344.252106 1071.997437,339.876770 
	C1072.367310,336.892914 1072.667847,333.811523 1072.338989,330.846924 
	C1071.407715,322.451050 1069.351440,314.111145 1069.155640,305.716125 
	C1068.677979,285.232819 1068.790527,264.727600 1069.111206,244.238174 
	C1069.226807,236.850067 1070.044189,229.187897 1074.630615,222.972763 
	C1083.854492,210.473526 1091.543823,197.147781 1097.591187,182.862213 
	C1103.615967,168.629852 1108.084351,154.056625 1108.039551,138.356339 
	C1107.993164,122.090820 1104.923340,106.404808 1098.704834,91.479523 
	C1091.878418,75.095589 1081.487183,61.122585 1067.036499,50.639839 
	C1051.720337,39.529163 1034.418457,35.123199 1015.666138,38.080452 
	C996.602661,41.086761 981.281067,51.333435 969.667358,66.112656 
	C950.214050,90.868279 942.438599,119.366005 945.982544,150.817871 
	C948.169983,170.230347 955.265686,187.811844 965.662048,204.163727 
	C969.293213,209.875076 973.066833,215.508667 977.033447,220.991043 
	C984.032043,230.664062 982.618835,242.150162 982.669250,252.690720 
	C982.820923,284.345245 984.890625,316.083282 980.974365,347.669037 
	C979.856201,356.687103 978.183167,365.640564 977.219727,374.672180 
	C976.510254,381.322845 976.267090,388.075073 980.008972,394.196350 
	C983.974304,400.683105 992.398193,400.809784 995.868286,394.045319 
	C997.573730,390.720856 998.843750,386.732574 998.818237,383.055054 
	C998.769836,376.057800 997.671936,369.065704 996.968872,362.075562 
	C995.661438,349.077515 993.661926,336.107758 993.163330,323.079803 
	C992.501038,305.776520 992.740540,288.422852 993.137817,271.103333 
	C993.280884,264.867432 994.495667,258.524170 996.199463,252.506836 
	C997.180725,249.041168 999.429016,245.107529 1002.308289,243.165359 
	C1010.061340,237.935654 1019.960754,241.768890 1021.727051,251.495850 
	C1024.137817,264.772308 1024.963135,278.369720 1025.919067,291.868408 
	C1026.944214,306.344116 1027.408203,320.861938 1027.974976,335.366974 
	C1028.427490,346.945038 1029.086304,358.538300 1028.897949,370.112518 
	C1028.640259,385.952515 1027.603027,401.778503 1027.017578,417.614838 
	C1026.396606,434.415192 1023.047974,450.695801 1017.767334,466.591339 
	C1014.199585,477.330994 1016.179138,486.625702 1024.128296,494.702881 
	C1024.984741,495.573090 1025.387085,496.890198 1026.000000,498.000000 
	C684.446655,498.000000 342.893280,498.000000 1.000000,498.000000 
	C1.000000,409.642883 1.000000,321.285309 1.373186,232.465698 
	C7.401958,239.962311 15.797228,238.405502 23.536688,237.676743 
	C28.248268,237.233078 31.995317,230.003967 31.996140,223.636414 
	C32.002956,170.825714 32.000000,118.015015 32.000000,65.204315 
	C32.000000,63.475391 32.000000,61.746471 32.000000,60.017548 
	C32.438862,60.032383 32.877720,60.047218 33.316582,60.062054 
	C59.252628,119.675194 85.188675,179.288330 111.068718,238.772736 
	C124.799416,238.772736 138.231506,238.772736 152.000000,238.772736 
	C152.000000,236.755096 152.000000,234.959763 152.000000,233.164444 
	C152.000000,162.194855 151.960861,91.225220 152.062088,20.255779 
	C152.071930,13.349720 152.183395,6.711457 145.816559,2.122073 
	C145.679382,2.023183 145.930191,1.386050 146.000000,1.000000 
	C373.690765,1.000000 601.381531,1.000000 829.837402,1.362518 
	C829.767029,2.149150 828.947205,2.907413 828.093750,2.947492 
	C814.233582,3.598333 804.147400,10.816559 796.809021,21.852987 
	C792.394043,28.492844 789.099854,35.896305 785.500000,43.056145 
	C777.258484,59.447990 768.968628,75.819183 761.014709,92.350937 
	C752.195374,110.681351 751.532776,129.783951 759.870483,148.086517 
	C770.727783,171.919983 782.791748,195.229401 795.026123,218.400162 
	C802.208069,232.001968 814.563477,239.326096 829.818359,239.831848 
	C850.291687,240.510590 870.804504,240.038116 891.300110,239.982391 
	C900.259583,239.958023 905.815002,233.649231 906.073486,224.202667 
	C906.272888,216.914108 899.908752,208.587402 891.308105,208.844070 
	C873.827271,209.365677 856.319946,208.989273 838.823547,209.004379 
	C829.659058,209.012299 823.027771,205.764618 818.834717,196.796387 
	C809.366882,176.545853 799.028748,156.704102 789.280762,136.581711 
	C784.750488,127.229965 784.246460,117.289726 788.705933,107.900024 
	C799.191589,85.821777 810.190247,63.987011 821.001648,42.063744 
	C823.783630,36.422314 828.122070,33.808540 834.659119,33.909359 
	C851.984741,34.176567 869.317505,34.048786 886.646790,33.954369 
	C889.712769,33.937664 892.928589,33.802494 895.806152,32.881397 
	C901.032043,31.208649 906.265137,26.801165 906.047058,18.243118 
	C905.839844,10.113505 902.436951,4.757583 895.959351,2.937716 
	C895.185791,2.720391 894.647400,1.666228 894.000000,0.999980 
	C1083.666626,1.000000 1273.333374,1.000000 1463.000000,1.000000 
	C1463.000000,14.758040 1463.000000,28.415136 1462.705933,42.824020 
	C1458.191528,39.069427 1452.949951,37.893024 1446.895874,37.920620 
	C1411.427979,38.082310 1375.958862,38.000000 1340.490234,38.000000 
	C1338.727661,38.000000 1336.964966,38.000000 1335.232178,38.000000 
	C1335.232178,105.611649 1335.232178,172.641602 1335.232178,240.000000 
	C1337.089233,240.000000 1338.718506,240.000000 1340.347656,240.000000 
	C1373.818115,240.000000 1407.288452,240.010162 1440.758911,239.992401 
	C1448.534790,239.988281 1456.628662,241.303131 1463.000000,235.000000 
M1254.000977,188.501282 
	C1240.736816,169.500046 1227.472534,150.498810 1214.211060,131.501495 
	C1225.546265,130.991074 1236.643799,131.196716 1247.533447,129.791977 
	C1257.364014,128.523865 1265.730957,123.654945 1271.561523,115.036385 
	C1275.880127,108.652809 1278.176392,101.738075 1277.950562,94.116371 
	C1277.673096,84.744774 1278.586182,74.968964 1276.221313,66.105171 
	C1271.337524,47.800900 1255.616333,38.449211 1236.395020,38.120644 
	C1208.752075,37.648125 1181.094971,37.996475 1153.443970,38.010094 
	C1152.013428,38.010796 1150.582886,38.158012 1149.000366,38.245415 
	C1149.000366,101.896515 1148.940918,165.177582 1149.071533,228.458252 
	C1149.088989,236.899185 1154.120239,240.271957 1164.686157,239.999954 
	C1171.848389,239.815598 1175.989746,235.341736 1175.994751,227.695663 
	C1176.009399,205.374969 1176.000000,183.054260 1176.000000,160.733566 
	C1176.000000,150.926926 1176.000000,141.120285 1176.000000,129.897507 
	C1178.807983,131.311859 1181.497681,131.794235 1182.656738,133.388947 
	C1191.574829,145.659683 1200.244995,158.112152 1208.898560,170.573334 
	C1223.705444,191.895340 1238.393799,213.299866 1253.248779,234.588150 
	C1256.710327,239.548981 1262.071533,241.045181 1267.659668,239.852295 
	C1272.552979,238.807678 1276.525879,235.749863 1277.784424,230.478531 
	C1279.221802,224.459198 1275.732544,219.829834 1272.705566,215.292297 
	C1266.797363,206.435654 1260.603638,197.769394 1254.000977,188.501282 
M487.482788,168.982986 
	C478.598419,156.210983 469.714050,143.438995 460.365692,130.000000 
	C466.219604,130.000000 471.186157,130.253067 476.116180,129.936737 
	C482.450562,129.530258 488.879333,129.232895 495.048096,127.884720 
	C508.851624,124.868011 519.175598,116.897835 522.346558,102.835701 
	C524.309692,94.129944 523.665161,84.812637 523.975891,75.762459 
	C524.771973,52.574539 504.623352,36.942856 485.173462,36.984547 
	C457.019440,37.044891 428.865234,37.000000 400.711090,37.000000 
	C398.926880,37.000000 397.142670,37.000000 395.000000,37.000000 
	C395.000000,39.203884 395.000000,41.000206 395.000000,42.796524 
	C395.000000,102.603233 395.000000,162.409943 395.000000,222.216660 
	C395.000000,234.646622 398.281403,238.002014 410.435120,238.000000 
	C418.564758,237.998657 421.994904,234.584686 421.996948,226.431870 
	C422.004608,196.112030 422.000000,165.792191 422.000000,135.472351 
	C422.000000,133.679108 422.000000,131.885880 422.000000,130.440384 
	C426.164795,128.769943 428.224518,131.047592 430.082367,133.595551 
	C431.505341,135.547104 432.740662,137.634369 434.127075,139.613876 
	C452.090942,165.261703 470.040070,190.919937 488.058685,216.529251 
	C492.525024,222.877075 496.745056,229.498398 501.946136,235.202759 
	C507.972900,241.812790 520.042236,238.352280 523.118469,230.048965 
	C525.235962,224.333542 522.900818,219.867783 520.022034,215.642197 
	C509.483612,200.173492 498.698090,184.873093 487.482788,168.982986 
M607.000000,68.599831 
	C607.000000,116.336349 607.000000,164.072876 607.000000,212.000000 
	C602.255737,212.000000 598.109314,211.997391 593.962952,212.000580 
	C586.587585,212.006271 582.873596,214.560318 581.273926,221.411072 
	C579.649841,228.366730 583.177734,238.748749 593.594055,238.221573 
	C610.043884,237.389069 626.567627,237.901657 643.058655,238.027939 
	C659.211853,238.151642 670.559021,230.466293 677.764648,216.527191 
	C686.630371,199.376541 695.259583,182.096664 703.613159,164.691299 
	C707.532898,156.524170 709.821472,147.757812 710.006165,138.568451 
	C710.229858,127.437508 706.848083,117.227089 701.840637,107.515518 
	C692.331421,89.072701 682.979614,70.534958 672.889526,52.411285 
	C667.829468,43.322620 659.105225,37.618622 648.732849,37.210457 
	C629.937744,36.470860 611.090515,36.844166 592.269653,37.097057 
	C586.706787,37.171810 581.931641,41.195919 581.012695,48.926971 
	C580.293884,54.973660 583.546631,60.712067 589.453430,61.957878 
	C594.993530,63.126354 600.805786,63.004421 607.000000,63.489620 
	C607.000000,64.722359 607.000000,66.172600 607.000000,68.599831 
M251.503311,212.000000 
	C246.405136,212.000000 241.306976,212.000000 236.280548,212.000000 
	C236.280548,191.361938 236.280548,171.295609 236.280548,150.999954 
	C249.364059,150.999954 262.170685,151.151749 274.971191,150.937790 
	C281.664886,150.825882 287.570648,146.130768 287.097229,137.695450 
	C286.635956,129.476852 282.351685,124.118141 274.840485,124.028717 
	C265.012726,123.911713 255.182541,124.000015 245.353394,124.000000 
	C242.267197,124.000000 239.180984,124.000000 236.334671,124.000000 
	C236.334671,103.252800 236.334671,83.185410 236.334671,63.000000 
	C266.647247,63.000000 296.625427,63.033054 326.603119,62.930939 
	C328.766876,62.923573 331.268280,62.450035 333.023407,61.296532 
	C337.738678,58.197556 339.198975,51.136810 336.997711,44.485928 
	C335.278900,39.292889 331.731812,37.002472 325.347870,37.001831 
	C288.030457,36.998100 250.713028,36.997387 213.395599,37.009983 
	C211.968979,37.010468 210.542419,37.157722 209.299408,37.226437 
	C209.299408,104.369377 209.299408,171.088013 209.299408,237.999664 
	C249.229431,237.999664 288.860382,238.011902 328.491180,237.948563 
	C329.874237,237.946335 331.422668,237.463257 332.608856,236.737885 
	C337.085754,234.000107 339.248749,226.688843 337.467499,220.947937 
	C335.374908,214.203629 332.448456,212.005005 325.470703,212.002869 
	C301.147736,211.995438 276.824768,212.000000 251.503311,212.000000 
z"/>
<path fill="#FFFFFF" opacity="1.000000" stroke="none" 
	d="
M1026.466064,498.000000 
	C1025.387085,496.890198 1024.984741,495.573090 1024.128296,494.702881 
	C1016.179138,486.625702 1014.199585,477.330994 1017.767334,466.591339 
	C1023.047974,450.695801 1026.396606,434.415192 1027.017578,417.614838 
	C1027.603027,401.778503 1028.640259,385.952515 1028.897949,370.112518 
	C1029.086304,358.538300 1028.427490,346.945038 1027.974976,335.366974 
	C1027.408203,320.861938 1026.944214,306.344116 1025.919067,291.868408 
	C1024.963135,278.369720 1024.137817,264.772308 1021.727051,251.495850 
	C1019.960754,241.768890 1010.061340,237.935654 1002.308289,243.165359 
	C999.429016,245.107529 997.180725,249.041168 996.199463,252.506836 
	C994.495667,258.524170 993.280884,264.867432 993.137817,271.103333 
	C992.740540,288.422852 992.501038,305.776520 993.163330,323.079803 
	C993.661926,336.107758 995.661438,349.077515 996.968872,362.075562 
	C997.671936,369.065704 998.769836,376.057800 998.818237,383.055054 
	C998.843750,386.732574 997.573730,390.720856 995.868286,394.045319 
	C992.398193,400.809784 983.974304,400.683105 980.008972,394.196350 
	C976.267090,388.075073 976.510254,381.322845 977.219727,374.672180 
	C978.183167,365.640564 979.856201,356.687103 980.974365,347.669037 
	C984.890625,316.083282 982.820923,284.345245 982.669250,252.690720 
	C982.618835,242.150162 984.032043,230.664062 977.033447,220.991043 
	C973.066833,215.508667 969.293213,209.875076 965.662048,204.163727 
	C955.265686,187.811844 948.169983,170.230347 945.982544,150.817871 
	C942.438599,119.366005 950.214050,90.868279 969.667358,66.112656 
	C981.281067,51.333435 996.602661,41.086761 1015.666138,38.080452 
	C1034.418457,35.123199 1051.720337,39.529163 1067.036499,50.639839 
	C1081.487183,61.122585 1091.878418,75.095589 1098.704834,91.479523 
	C1104.923340,106.404808 1107.993164,122.090820 1108.039551,138.356339 
	C1108.084351,154.056625 1103.615967,168.629852 1097.591187,182.862213 
	C1091.543823,197.147781 1083.854492,210.473526 1074.630615,222.972763 
	C1070.044189,229.187897 1069.226807,236.850067 1069.111206,244.238174 
	C1068.790527,264.727600 1068.677979,285.232819 1069.155640,305.716125 
	C1069.351440,314.111145 1071.407715,322.451050 1072.338989,330.846924 
	C1072.667847,333.811523 1072.367310,336.892914 1071.997437,339.876770 
	C1071.455078,344.252106 1069.135742,346.668549 1064.346191,346.020264 
	C1059.513184,345.366089 1058.258789,341.299255 1058.219727,337.898499 
	C1058.152954,332.103912 1059.449951,326.292633 1060.187134,320.490051 
	C1060.781494,315.810303 1061.853027,311.139221 1061.916748,306.453461 
	C1062.134155,290.460754 1062.145752,274.460968 1061.893188,258.469269 
	C1061.833374,254.676941 1061.104614,250.570145 1059.428101,247.240051 
	C1058.266235,244.932419 1055.170044,242.951401 1052.543335,242.194748 
	C1049.358887,241.277451 1046.781616,243.744690 1046.118896,246.798141 
	C1044.786377,252.937897 1043.416138,259.169586 1043.118408,265.413757 
	C1042.416016,280.144653 1042.364624,294.905945 1041.989868,309.653412 
	C1041.708130,320.737579 1041.262207,331.817749 1041.016235,342.902557 
	C1040.622314,360.648926 1039.587036,378.424683 1040.229370,396.137024 
	C1040.771240,411.087036 1043.028564,426.003174 1045.057739,440.861786 
	C1046.608154,452.213318 1049.493896,463.391571 1050.841797,474.758789 
	C1051.939697,484.017059 1048.101074,491.791199 1040.712891,497.706512 
	C1036.310669,498.000000 1031.621460,498.000000 1026.466064,498.000000 
M1013.913513,193.976532 
	C1021.555481,193.985229 1029.349854,194.976364 1036.810791,193.818680 
	C1059.323364,190.325546 1075.786133,169.500458 1076.908081,147.222610 
	C1077.522339,135.025574 1073.570190,124.068344 1066.037231,114.308792 
	C1064.317261,112.080406 1063.222778,108.811638 1063.134033,105.981148 
	C1062.799805,95.330482 1062.883545,84.660973 1063.075195,74.003265 
	C1063.128540,71.038742 1062.382202,69.412483 1059.350708,68.977867 
	C1050.369019,67.690163 1041.434814,65.799599 1032.410400,65.168587 
	C1025.222534,64.665993 1017.902588,65.389046 1010.691895,66.089355 
	C1005.098755,66.632576 999.574585,67.933121 994.037170,68.988480 
	C990.438416,69.674362 988.832520,71.914154 988.977173,75.623650 
	C989.376526,85.866409 989.423096,96.130295 990.130493,106.349747 
	C990.382507,109.990097 988.929810,112.185120 986.870789,114.713699 
	C978.610840,124.856972 974.601929,136.893402 976.257812,149.571655 
	C979.138245,171.624237 991.774231,186.532684 1013.913513,193.976532 
z"/>
<path fill="#FFFFFF" opacity="1.000000" stroke="none" 
	d="
M145.531723,1.000000 
	C145.930191,1.386050 145.679382,2.023183 145.816559,2.122073 
	C152.183395,6.711457 152.071930,13.349720 152.062088,20.255779 
	C151.960861,91.225220 152.000000,162.194855 152.000000,233.164444 
	C152.000000,234.959763 152.000000,236.755096 152.000000,238.772736 
	C138.231506,238.772736 124.799416,238.772736 111.068718,238.772736 
	C85.188675,179.288330 59.252628,119.675194 33.316582,60.062054 
	C32.877720,60.047218 32.438862,60.032383 32.000000,60.017548 
	C32.000000,61.746471 32.000000,63.475391 32.000000,65.204315 
	C32.000000,118.015015 32.002956,170.825714 31.996140,223.636414 
	C31.995317,230.003967 28.248268,237.233078 23.536688,237.676743 
	C15.797228,238.405502 7.401958,239.962311 1.373186,232.001831 
	C1.000000,155.123550 1.000000,78.247108 1.000000,1.000000 
	C14.685330,1.000000 28.374006,1.000000 42.221016,1.317060 
	C46.131031,10.484477 49.827724,19.358646 53.647293,28.179609 
	C59.376617,41.410988 65.274994,54.569557 70.951675,67.823250 
	C79.523636,87.836723 87.896317,107.935638 96.486794,127.941071 
	C103.187286,143.545120 110.096649,159.059418 116.896095,174.621078 
	C117.845825,176.794708 118.697632,179.011124 119.594765,181.207733 
	C120.063179,181.081131 120.531586,180.954529 121.000000,180.827927 
	C121.000000,179.091583 121.000000,177.355225 121.000000,175.618881 
	C121.000000,123.828247 121.053154,72.037491 120.936462,20.247122 
	C120.920891,13.341720 120.823204,6.709664 127.183746,2.121585 
	C127.320847,2.022698 127.069916,1.385879 127.000000,1.000000 
	C133.021149,1.000000 139.042297,1.000000 145.531723,1.000000 
z"/>
<path fill="#151515" opacity="1.000000" stroke="none"
	d="
M1463.000000,60.000000 
	C1463.000000,112.354225 1463.000000,164.708450 1462.704834,217.819427 
	C1458.218994,213.970337 1452.810181,212.950134 1446.878784,212.967087 
	C1420.382202,213.042801 1393.885376,213.000000 1367.388550,213.000000 
	C1365.634644,213.000000 1363.880859,213.000000 1362.330078,213.000000 
	C1362.330078,192.604172 1362.330078,172.865875 1362.330078,152.999969 
	C1374.647949,152.999969 1386.648071,153.327133 1398.620483,152.892242 
	C1407.545532,152.568024 1412.834473,149.616257 1412.924438,138.449020 
	C1412.981934,131.313507 1409.085571,125.517868 1398.612305,125.897972 
	C1386.520874,126.336800 1374.401367,126.000000 1362.248291,126.000000 
	C1362.248291,105.435875 1362.248291,85.365601 1362.248291,65.000000 
	C1364.121216,65.000000 1365.759033,65.000000 1367.396851,65.000000 
	C1394.893555,65.000000 1422.390259,64.975029 1449.886963,65.027229 
	C1453.956909,65.034950 1457.658081,64.522423 1460.453491,61.117268 
	C1460.977783,60.478466 1462.134888,60.359062 1463.000000,60.000000 
z"/>
<path fill="#FFFFFF" opacity="1.000000" stroke="none" 
	d="
M893.531372,0.999980 
	C894.647400,1.666228 895.185791,2.720391 895.959351,2.937716 
	C902.436951,4.757583 905.839844,10.113505 906.047058,18.243118 
	C906.265137,26.801165 901.032043,31.208649 895.806152,32.881397 
	C892.928589,33.802494 889.712769,33.937664 886.646790,33.954369 
	C869.317505,34.048786 851.984741,34.176567 834.659119,33.909359 
	C828.122070,33.808540 823.783630,36.422314 821.001648,42.063744 
	C810.190247,63.987011 799.191589,85.821777 788.705933,107.900024 
	C784.246460,117.289726 784.750488,127.229965 789.280762,136.581711 
	C799.028748,156.704102 809.366882,176.545853 818.834717,196.796387 
	C823.027771,205.764618 829.659058,209.012299 838.823547,209.004379 
	C856.319946,208.989273 873.827271,209.365677 891.308105,208.844070 
	C899.908752,208.587402 906.272888,216.914108 906.073486,224.202667 
	C905.815002,233.649231 900.259583,239.958023 891.300110,239.982391 
	C870.804504,240.038116 850.291687,240.510590 829.818359,239.831848 
	C814.563477,239.326096 802.208069,232.001968 795.026123,218.400162 
	C782.791748,195.229401 770.727783,171.919983 759.870483,148.086517 
	C751.532776,129.783951 752.195374,110.681351 761.014709,92.350937 
	C768.968628,75.819183 777.258484,59.447990 785.500000,43.056145 
	C789.099854,35.896305 792.394043,28.492844 796.809021,21.852987 
	C804.147400,10.816559 814.233582,3.598333 828.093750,2.947492 
	C828.947205,2.907413 829.767029,2.149150 830.301270,1.362518 
	C851.020874,1.000000 872.041809,1.000000 893.531372,0.999980 
z"/>
<path fill="#FFFFFF" opacity="1.000000" stroke="none" 
	d="
M1463.000000,59.532394 
	C1462.134888,60.359062 1460.977783,60.478466 1460.453491,61.117268 
	C1457.658081,64.522423 1453.956909,65.034950 1449.886963,65.027229 
	C1422.390259,64.975029 1394.893555,65.000000 1367.396851,65.000000 
	C1365.759033,65.000000 1364.121216,65.000000 1362.248291,65.000000 
	C1362.248291,85.365601 1362.248291,105.435875 1362.248291,126.000000 
	C1374.401367,126.000000 1386.520874,126.336800 1398.612305,125.897972 
	C1409.085571,125.517868 1412.981934,131.313507 1412.924438,138.449020 
	C1412.834473,149.616257 1407.545532,152.568024 1398.620483,152.892242 
	C1386.648071,153.327133 1374.647949,152.999969 1362.330078,152.999969 
	C1362.330078,172.865875 1362.330078,192.604172 1362.330078,213.000000 
	C1363.880859,213.000000 1365.634644,213.000000 1367.388550,213.000000 
	C1393.885376,213.000000 1420.382202,213.042801 1446.878784,212.967087 
	C1452.810181,212.950134 1458.218994,213.970337 1462.704834,218.288086 
	C1463.000000,223.354935 1463.000000,228.709854 1463.000000,234.532394 
	C1456.628662,241.303131 1448.534790,239.988281 1440.758911,239.992401 
	C1407.288452,240.010162 1373.818115,240.000000 1340.347656,240.000000 
	C1338.718506,240.000000 1337.089233,240.000000 1335.232178,240.000000 
	C1335.232178,172.641602 1335.232178,105.611649 1335.232178,38.000000 
	C1336.964966,38.000000 1338.727661,38.000000 1340.490234,38.000000 
	C1375.958862,38.000000 1411.427979,38.082310 1446.895874,37.920620 
	C1452.949951,37.893024 1458.191528,39.069427 1462.705933,43.287903 
	C1463.000000,48.354931 1463.000000,53.709858 1463.000000,59.532394 
z"/>
<path fill="#151515" opacity="1.000000" stroke="none"
	d="
M126.531342,1.000000 
	C127.069916,1.385879 127.320847,2.022698 127.183746,2.121585 
	C120.823204,6.709664 120.920891,13.341720 120.936462,20.247122 
	C121.053154,72.037491 121.000000,123.828247 121.000000,175.618881 
	C121.000000,177.355225 121.000000,179.091583 121.000000,180.827927 
	C120.531586,180.954529 120.063179,181.081131 119.594765,181.207733 
	C118.697632,179.011124 117.845825,176.794708 116.896095,174.621078 
	C110.096649,159.059418 103.187286,143.545120 96.486794,127.941071 
	C87.896317,107.935638 79.523636,87.836723 70.951675,67.823250 
	C65.274994,54.569557 59.376617,41.410988 53.647293,28.179609 
	C49.827724,19.358646 46.131031,10.484477 42.689674,1.317060 
	C70.687561,1.000000 98.375122,1.000000 126.531342,1.000000 
z"/>
<path fill="#FFFFFF" opacity="1.000000" stroke="none" 
	d="
M1254.264526,188.762802 
	C1260.603638,197.769394 1266.797363,206.435654 1272.705566,215.292297 
	C1275.732544,219.829834 1279.221802,224.459198 1277.784424,230.478531 
	C1276.525879,235.749863 1272.552979,238.807678 1267.659668,239.852295 
	C1262.071533,241.045181 1256.710327,239.548981 1253.248779,234.588150 
	C1238.393799,213.299866 1223.705444,191.895340 1208.898560,170.573334 
	C1200.244995,158.112152 1191.574829,145.659683 1182.656738,133.388947 
	C1181.497681,131.794235 1178.807983,131.311859 1176.000000,129.897507 
	C1176.000000,141.120285 1176.000000,150.926926 1176.000000,160.733566 
	C1176.000000,183.054260 1176.009399,205.374969 1175.994751,227.695663 
	C1175.989746,235.341736 1171.848389,239.815598 1164.686157,239.999954 
	C1154.120239,240.271957 1149.088989,236.899185 1149.071533,228.458252 
	C1148.940918,165.177582 1149.000366,101.896515 1149.000366,38.245415 
	C1150.582886,38.158012 1152.013428,38.010796 1153.443970,38.010094 
	C1181.094971,37.996475 1208.752075,37.648125 1236.395020,38.120644 
	C1255.616333,38.449211 1271.337524,47.800900 1276.221313,66.105171 
	C1278.586182,74.968964 1277.673096,84.744774 1277.950562,94.116371 
	C1278.176392,101.738075 1275.880127,108.652809 1271.561523,115.036385 
	C1265.730957,123.654945 1257.364014,128.523865 1247.533447,129.791977 
	C1236.643799,131.196716 1225.546265,130.991074 1214.211060,131.501495 
	C1227.472534,150.498810 1240.736816,169.500046 1254.264526,188.762802 
M1249.726685,98.803268 
	C1250.148315,97.759010 1250.918945,96.720253 1250.935425,95.669617 
	C1251.045654,88.683723 1251.574341,81.622612 1250.712402,74.743164 
	C1250.364136,71.962532 1247.342163,68.692284 1244.670288,67.243820 
	C1241.589355,65.573753 1237.558716,65.146942 1233.926758,65.091904 
	C1219.289307,64.870087 1204.646606,65.000000 1190.005859,65.000000 
	C1185.409668,65.000000 1180.813354,65.000000 1176.258545,65.000000 
	C1176.258545,78.281174 1176.258545,91.004265 1176.258545,103.999245 
	C1197.615356,103.999245 1218.718506,104.190254 1239.810425,103.791283 
	C1242.938477,103.732117 1246.013794,100.889191 1249.726685,98.803268 
z"/>
<path fill="#FFFFFF" opacity="1.000000" stroke="none" 
	d="
M487.744202,169.246140 
	C498.698090,184.873093 509.483612,200.173492 520.022034,215.642197 
	C522.900818,219.867783 525.235962,224.333542 523.118469,230.048965 
	C520.042236,238.352280 507.972900,241.812790 501.946136,235.202759 
	C496.745056,229.498398 492.525024,222.877075 488.058685,216.529251 
	C470.040070,190.919937 452.090942,165.261703 434.127075,139.613876 
	C432.740662,137.634369 431.505341,135.547104 430.082367,133.595551 
	C428.224518,131.047592 426.164795,128.769943 422.000000,130.440384 
	C422.000000,131.885880 422.000000,133.679108 422.000000,135.472351 
	C422.000000,165.792191 422.004608,196.112030 421.996948,226.431870 
	C421.994904,234.584686 418.564758,237.998657 410.435120,238.000000 
	C398.281403,238.002014 395.000000,234.646622 395.000000,222.216660 
	C395.000000,162.409943 395.000000,102.603233 395.000000,42.796524 
	C395.000000,41.000206 395.000000,39.203884 395.000000,37.000000 
	C397.142670,37.000000 398.926880,37.000000 400.711090,37.000000 
	C428.865234,37.000000 457.019440,37.044891 485.173462,36.984547 
	C504.623352,36.942856 524.771973,52.574539 523.975891,75.762459 
	C523.665161,84.812637 524.309692,94.129944 522.346558,102.835701 
	C519.175598,116.897835 508.851624,124.868011 495.048096,127.884720 
	C488.879333,129.232895 482.450562,129.530258 476.116180,129.936737 
	C471.186157,130.253067 466.219604,130.000000 460.365692,130.000000 
	C469.714050,143.438995 478.598419,156.210983 487.744202,169.246140 
M422.000000,83.499771 
	C422.000000,89.921394 422.000000,96.343010 422.000000,103.000000 
	C441.316101,103.000000 460.085419,103.101959 478.851807,102.911674 
	C482.487823,102.874794 486.102875,101.637955 489.744232,101.059326 
	C495.429657,100.155876 496.829773,96.068588 496.964722,91.227119 
	C497.117554,85.742928 496.860657,80.246620 497.040833,74.764091 
	C497.206970,69.707603 494.459564,66.576286 490.197968,65.215286 
	C486.099457,63.906368 481.658112,63.154125 477.354553,63.095207 
	C460.393402,62.862984 443.427246,62.994366 426.462921,63.010197 
	C425.032471,63.011532 423.602173,63.156719 422.000000,63.244492 
	C422.000000,69.897568 422.000000,76.198891 422.000000,83.499771 
z"/>
<path fill="#FFFFFF" opacity="1.000000" stroke="none" 
	d="
M607.000000,68.111328 
	C607.000000,66.172600 607.000000,64.722359 607.000000,63.489620 
	C600.805786,63.004421 594.993530,63.126354 589.453430,61.957878 
	C583.546631,60.712067 580.293884,54.973660 581.012695,48.926971 
	C581.931641,41.195919 586.706787,37.171810 592.269653,37.097057 
	C611.090515,36.844166 629.937744,36.470860 648.732849,37.210457 
	C659.105225,37.618622 667.829468,43.322620 672.889526,52.411285 
	C682.979614,70.534958 692.331421,89.072701 701.840637,107.515518 
	C706.848083,117.227089 710.229858,127.437508 710.006165,138.568451 
	C709.821472,147.757812 707.532898,156.524170 703.613159,164.691299 
	C695.259583,182.096664 686.630371,199.376541 677.764648,216.527191 
	C670.559021,230.466293 659.211853,238.151642 643.058655,238.027939 
	C626.567627,237.901657 610.043884,237.389069 593.594055,238.221573 
	C583.177734,238.748749 579.649841,228.366730 581.273926,221.411072 
	C582.873596,214.560318 586.587585,212.006271 593.962952,212.000580 
	C598.109314,211.997391 602.255737,212.000000 607.000000,212.000000 
	C607.000000,164.072876 607.000000,116.336349 607.000000,68.111328 
M643.413879,63.995457 
	C640.089600,63.545261 636.765320,63.095070 633.343262,62.631630 
	C633.343262,112.918434 633.343262,162.425995 633.343262,211.999969 
	C634.685181,211.999969 635.683777,211.993866 636.682251,212.000931 
	C644.444885,212.055893 650.715027,210.228745 654.518860,202.206039 
	C662.914673,184.498108 672.255737,167.237961 680.631226,149.520966 
	C683.769775,142.881760 684.475891,135.432709 681.029663,128.351746 
	C671.546936,108.867332 661.999329,89.414482 652.464783,69.955315 
	C650.791321,66.539970 648.386719,64.077614 643.413879,63.995457 
z"/>
<path fill="#FFFFFF" opacity="1.000000" stroke="none" 
	d="
M252.002563,212.000000 
	C276.824768,212.000000 301.147736,211.995438 325.470703,212.002869 
	C332.448456,212.005005 335.374908,214.203629 337.467499,220.947937 
	C339.248749,226.688843 337.085754,234.000107 332.608856,236.737885 
	C331.422668,237.463257 329.874237,237.946335 328.491180,237.948563 
	C288.860382,238.011902 249.229431,237.999664 209.299408,237.999664 
	C209.299408,171.088013 209.299408,104.369377 209.299408,37.226437 
	C210.542419,37.157722 211.968979,37.010468 213.395599,37.009983 
	C250.713028,36.997387 288.030457,36.998100 325.347870,37.001831 
	C331.731812,37.002472 335.278900,39.292889 336.997711,44.485928 
	C339.198975,51.136810 337.738678,58.197556 333.023407,61.296532 
	C331.268280,62.450035 328.766876,62.923573 326.603119,62.930939 
	C296.625427,63.033054 266.647247,63.000000 236.334671,63.000000 
	C236.334671,83.185410 236.334671,103.252800 236.334671,124.000000 
	C239.180984,124.000000 242.267197,124.000000 245.353394,124.000000 
	C255.182541,124.000015 265.012726,123.911713 274.840485,124.028717 
	C282.351685,124.118141 286.635956,129.476852 287.097229,137.695450 
	C287.570648,146.130768 281.664886,150.825882 274.971191,150.937790 
	C262.170685,151.151749 249.364059,150.999954 236.280548,150.999954 
	C236.280548,171.295609 236.280548,191.361938 236.280548,212.000000 
	C241.306976,212.000000 246.405136,212.000000 252.002563,212.000000 
z"/>
<path fill="#151515" opacity="1.000000" stroke="none"
	d="
M1013.518555,193.812790 
	C991.774231,186.532684 979.138245,171.624237 976.257812,149.571655 
	C974.601929,136.893402 978.610840,124.856972 986.870789,114.713699 
	C988.929810,112.185120 990.382507,109.990097 990.130493,106.349747 
	C989.423096,96.130295 989.376526,85.866409 988.977173,75.623650 
	C988.832520,71.914154 990.438416,69.674362 994.037170,68.988480 
	C999.574585,67.933121 1005.098755,66.632576 1010.691895,66.089355 
	C1017.902588,65.389046 1025.222534,64.665993 1032.410400,65.168587 
	C1041.434814,65.799599 1050.369019,67.690163 1059.350708,68.977867 
	C1062.382202,69.412483 1063.128540,71.038742 1063.075195,74.003265 
	C1062.883545,84.660973 1062.799805,95.330482 1063.134033,105.981148 
	C1063.222778,108.811638 1064.317261,112.080406 1066.037231,114.308792 
	C1073.570190,124.068344 1077.522339,135.025574 1076.908081,147.222610 
	C1075.786133,169.500458 1059.323364,190.325546 1036.810791,193.818680 
	C1029.349854,194.976364 1021.555481,193.985229 1013.518555,193.812790 
M1003.776672,76.001831 
	C1001.607971,77.171234 997.747559,76.125938 997.997009,80.456871 
	C998.408936,87.608780 998.798218,94.761993 999.261047,103.063438 
	C1017.645325,91.815895 1035.680908,92.541222 1053.774780,102.723541 
	C1054.225342,94.687431 1054.782593,87.782059 1054.848389,80.872009 
	C1054.860840,79.581032 1053.068237,77.342148 1051.828857,77.122932 
	C1044.481445,75.823410 1037.062500,74.300621 1029.646606,74.183411 
	C1021.329712,74.051941 1012.990540,75.333405 1003.776672,76.001831 
M995.024231,160.248505 
	C994.015503,157.067139 993.222168,153.792511 991.903198,150.745438 
	C991.285400,149.318268 989.653198,148.330215 988.480774,147.143112 
	C987.654053,148.445786 986.650452,149.674911 986.066956,151.078659 
	C985.715515,151.924042 985.726074,153.160233 986.075012,154.016663 
	C988.118896,159.033310 989.925964,164.210266 992.603516,168.879852 
	C994.096069,171.482864 996.553894,174.465607 1001.241699,172.398102 
	C1000.885132,170.920456 1000.804321,169.107651 1000.022522,167.678238 
	C998.721252,165.299194 996.970459,163.165985 995.024231,160.248505 
z"/>
<path fill="#151515" opacity="1.000000" stroke="none"
	d="
M1249.420166,99.068718 
	C1246.013794,100.889191 1242.938477,103.732117 1239.810425,103.791283 
	C1218.718506,104.190254 1197.615356,103.999245 1176.258545,103.999245 
	C1176.258545,91.004265 1176.258545,78.281174 1176.258545,65.000000 
	C1180.813354,65.000000 1185.409668,65.000000 1190.005859,65.000000 
	C1204.646606,65.000000 1219.289307,64.870087 1233.926758,65.091904 
	C1237.558716,65.146942 1241.589355,65.573753 1244.670288,67.243820 
	C1247.342163,68.692284 1250.364136,71.962532 1250.712402,74.743164 
	C1251.574341,81.622612 1251.045654,88.683723 1250.935425,95.669617 
	C1250.918945,96.720253 1250.148315,97.759010 1249.420166,99.068718 
z"/>
<path fill="#151515" opacity="1.000000" stroke="none"
	d="
M422.000000,82.999992 
	C422.000000,76.198891 422.000000,69.897568 422.000000,63.244492 
	C423.602173,63.156719 425.032471,63.011532 426.462921,63.010197 
	C443.427246,62.994366 460.393402,62.862984 477.354553,63.095207 
	C481.658112,63.154125 486.099457,63.906368 490.197968,65.215286 
	C494.459564,66.576286 497.206970,69.707603 497.040833,74.764091 
	C496.860657,80.246620 497.117554,85.742928 496.964722,91.227119 
	C496.829773,96.068588 495.429657,100.155876 489.744232,101.059326 
	C486.102875,101.637955 482.487823,102.874794 478.851807,102.911674 
	C460.085419,103.101959 441.316101,103.000000 422.000000,103.000000 
	C422.000000,96.343010 422.000000,89.921394 422.000000,82.999992 
z"/>
<path fill="#151515" opacity="1.000000" stroke="none"
	d="
M643.841553,63.997566 
	C648.386719,64.077614 650.791321,66.539970 652.464783,69.955315 
	C661.999329,89.414482 671.546936,108.867332 681.029663,128.351746 
	C684.475891,135.432709 683.769775,142.881760 680.631226,149.520966 
	C672.255737,167.237961 662.914673,184.498108 654.518860,202.206039 
	C650.715027,210.228745 644.444885,212.055893 636.682251,212.000931 
	C635.683777,211.993866 634.685181,211.999969 633.343262,211.999969 
	C633.343262,162.425995 633.343262,112.918434 633.343262,62.631630 
	C636.765320,63.095070 640.089600,63.545261 643.841553,63.997566 
z"/>
<path fill="#FFFFFF" opacity="1.000000" stroke="none" 
	d="
M1004.218872,76.000969 
	C1012.990540,75.333405 1021.329712,74.051941 1029.646606,74.183411 
	C1037.062500,74.300621 1044.481445,75.823410 1051.828857,77.122932 
	C1053.068237,77.342148 1054.860840,79.581032 1054.848389,80.872009 
	C1054.782593,87.782059 1054.225342,94.687431 1053.774780,102.723541 
	C1035.680908,92.541222 1017.645325,91.815895 999.261047,103.063438 
	C998.798218,94.761993 998.408936,87.608780 997.997009,80.456871 
	C997.747559,76.125938 1001.607971,77.171234 1004.218872,76.000969 
z"/>
<path fill="#FFFFFF" opacity="1.000000" stroke="none" 
	d="
M995.216553,160.588898 
	C996.970459,163.165985 998.721252,165.299194 1000.022522,167.678238 
	C1000.804321,169.107651 1000.885132,170.920456 1001.241699,172.398102 
	C996.553894,174.465607 994.096069,171.482864 992.603516,168.879852 
	C989.925964,164.210266 988.118896,159.033310 986.075012,154.016663 
	C985.726074,153.160233 985.715515,151.924042 986.066956,151.078659 
	C986.650452,149.674911 987.654053,148.445786 988.480774,147.143127 
	C989.653198,148.330215 991.285400,149.318268 991.903198,150.745438 
	C993.222168,153.792511 994.015503,157.067139 995.216553,160.588898 
z"/>
</svg>