<svg xmlns="http://www.w3.org/2000/svg" width="25" height="25" viewBox="0 0 25 25">
    <g fill="#5C97BC" fill-rule="nonzero">
        <path d="M9.97 12.745h.855v5.174c0 .113.096.209.21.209h2.237c.113 0 .209-.096.209-.21v-5.173h1.298a.213.213 0 0 0 .209-.185l.197-1.902A.208.208 0 0 0 15 10.43H13.481v-.91c0-.06.006-.12.03-.173a.198.198 0 0 1 .125-.114.339.339 0 0 1 .108-.017h1.202c.114 0 .21-.096.21-.21V7.165a.212.212 0 0 0-.21-.21L13.29 6.95a2.775 2.775 0 0 0-1.22.251 1.992 1.992 0 0 0-.616.449c-.233.25-.4.556-.502.885-.09.287-.132.58-.132.879v1.023h-.855a.212.212 0 0 0-.21.209v1.902a.216.216 0 0 0 .216.197z"/>
        <path d="M12.47 24.988c6.89.006 12.476-5.568 12.488-12.458C24.97 5.64 19.384.054 12.5.042 5.616.03.018 5.616.012 12.5a12.459 12.459 0 0 0 3.654 8.834 12.415 12.415 0 0 0 8.804 3.654zm0-23.666c6.196-.006 11.226 5.018 11.232 11.214.006 6.196-5.018 11.226-11.214 11.232-6.196 0-11.226-5.018-11.232-11.214 0-2.979 1.178-5.837 3.29-7.949a11.164 11.164 0 0 1 7.924-3.283z"/>
    </g>
</svg>

