<svg xmlns="http://www.w3.org/2000/svg" width="25" height="25" viewBox="0 0 25 25">
    <g fill="#5C97BC" fill-rule="nonzero">
        <path d="M12.47 24.988c6.89.006 12.476-5.568 12.488-12.458C24.97 5.64 19.384.054 12.5.042 5.616.03.018 5.616.012 12.5a12.459 12.459 0 0 0 3.654 8.834 12.415 12.415 0 0 0 8.804 3.654zm0-23.666c6.196-.006 11.226 5.018 11.232 11.214.006 6.196-5.018 11.226-11.214 11.232-6.196 0-11.226-5.018-11.232-11.214 0-2.979 1.178-5.837 3.29-7.949a11.164 11.164 0 0 1 7.924-3.283z"/>
        <path d="M6.74 16.238a6.75 6.75 0 0 0 3.649 1.07 6.84 6.84 0 0 0 2.9-.621 6.595 6.595 0 0 0 2.883-2.632 7.013 7.013 0 0 0 .987-3.523v-.197c.43-.329.808-.724 1.113-1.178a.212.212 0 0 0-.264-.311 3.712 3.712 0 0 1-.49.18c.21-.246.365-.533.46-.838a.208.208 0 0 0-.137-.263.22.22 0 0 0-.174.018c-.4.239-.837.406-1.291.508a2.515 2.515 0 0 0-4.247 2.111 6.317 6.317 0 0 1-4.336-2.314.209.209 0 0 0-.293-.03c-.018.018-.036.036-.048.06a2.502 2.502 0 0 0 .21 2.828 2.008 2.008 0 0 1-.258-.12.215.215 0 0 0-.287.085.176.176 0 0 0-.024.095v.036c0 .85.43 1.645 1.149 2.111l-.09-.018a.21.21 0 0 0-.24.27 2.512 2.512 0 0 0 1.789 1.674c-.85.515-1.842.73-2.823.61a.21.21 0 0 0-.233.186.231.231 0 0 0 .095.203z"/>
    </g>
</svg>
